<?xml version="1.0" encoding="UTF-8" standalone="no"?>
<!-- Created with Inkscape (http://www.inkscape.org/) -->

<svg
   width="107.65049mm"
   height="86.324295mm"
   viewBox="0 0 107.65049 86.324295"
   version="1.1"
   id="svg1"
   xml:space="preserve"
   xmlns="http://www.w3.org/2000/svg"
   xmlns:svg="http://www.w3.org/2000/svg"><defs
     id="defs1" /><g
     id="layer1"
     transform="translate(-46.805532,-89.759322)"><path
       id="path4"
       style="baseline-shift:baseline;display:inline;overflow:visible;vector-effect:none;fill:#004777;fill-opacity:1;stroke-width:0.701902;stroke-linecap:round;stroke-linejoin:round;paint-order:stroke fill markers;enable-background:accumulate;stop-color:#000000;stop-opacity:1"
       d="m 154.45114,108.70843 -11.91761,0.0108 -23.68239,0.0311 v 12.92879 c 0.68516,13.23897 25.77553,28.99802 22,41.48395 -1.44752,2.415 -6.45434,2.00213 -8.44676,0.0127 -2.90784,-2.90347 0,-12.32767 0,-12.32767 h -13.55324 v 25.23552 h 13.55376 l 22.04624,-0.0311 -3e-5,-12.86814 c -0.76084,-13.2877 -25.72236,-28.99694 -21.91952,-41.53648 1.71755,-2.86176 7.64927,-2.37744 10.01282,-0.0209 2.90984,2.9012 0.0109,12.32708 0.0109,12.32708 l 11.90071,-0.0108 z" /><path
       id="path8"
       style="baseline-shift:baseline;display:inline;overflow:visible;vector-effect:none;fill:#004777;fill-opacity:1;stroke-linecap:round;stroke-linejoin:round;paint-order:stroke fill markers;enable-background:accumulate;stop-color:#000000;stop-opacity:1"
       d="m 59.806294,89.839801 -13.00024,5.1e-4 -5.16e-4,86.072789 48.780485,0.009 -0.01705,-12.99972 h -0.04961 l 0.09973,-53.58019 H 82.837447 c 7.55962,19.15223 6.031216,37.08674 5.910773,38.36224 -2.51e-4,0.003 -2.65e-4,0.005 -5.17e-4,0.008 -1.7e-5,1.8e-4 1.7e-5,3.4e-4 0,5.2e-4 -0.0057,0.11074 0.0042,0.22475 0.02842,0.3359 3.7e-5,1.7e-4 -3.7e-5,3.4e-4 0,5.1e-4 0.02429,0.11116 0.06303,0.21949 0.113688,0.31885 7.3e-5,1.4e-4 -7.2e-5,3.7e-4 0,5.1e-4 0.0507,0.0993 0.113602,0.18977 0.187069,0.2651 0.07356,0.0754 0.157864,0.13554 0.250631,0.17467 l 1.785937,0.83458 c 0.185636,0.0783 0.38269,0.23541 0.550871,0.42478 0.08406,0.0946 0.160815,0.1971 0.225309,0.3023 0.06449,0.1052 0.116625,0.21242 0.151412,0.31678 4.7e-5,1.4e-4 -4.6e-5,3.8e-4 0,5.2e-4 l 0.974101,2.6603 v 5.2e-4 c 0.04051,0.0977 0.06939,0.21178 0.08785,0.33434 2.7e-5,1.8e-4 -2.7e-5,3.4e-4 0,5.2e-4 0.01843,0.1226 0.02677,0.25355 0.02532,0.3855 -10e-7,1.8e-4 2e-6,3.5e-4 0,5.2e-4 -0.0015,0.13196 -0.01234,0.26484 -0.03152,0.39068 -2.5e-5,1.6e-4 2.5e-5,3.5e-4 0,5.1e-4 -0.01921,0.12581 -0.04691,0.24461 -0.08165,0.34882 -4.9e-5,1.4e-4 4.9e-5,3.7e-4 0,5.1e-4 l -0.533817,1.43403 v 5.1e-4 c -0.03479,0.10423 -0.087,0.21172 -0.151412,0.31678 -0.12901,0.21055 -0.306934,0.41128 -0.494027,0.55655 -0.09348,0.0726 -0.189387,0.1314 -0.282153,0.17054 l -2.365231,1.09554 c -0.173937,0.0914 -0.405869,0.13039 -0.640788,0.12712 -0.234918,-0.003 -0.472824,-0.0489 -0.658357,-0.12712 l -1.785421,-0.83458 c -0.0013,-6.9e-4 -0.0028,-8.7e-4 -0.0041,-0.002 -0.08595,-0.0443 -0.179825,-0.0688 -0.276986,-0.0744 -0.0986,-0.006 -0.200075,0.007 -0.29869,0.0367 -0.197229,0.0587 -0.383046,0.18281 -0.510563,0.35243 -0.336203,0.46951 -0.701475,0.92588 -1.089856,1.36271 -8.7e-5,1e-4 8.8e-5,4.2e-4 0,5.2e-4 -0.388478,0.43692 -0.800337,0.85406 -1.229382,1.2454 -0.07537,0.0717 -0.139102,0.15793 -0.190169,0.25373 -0.05107,0.0958 -0.0896,0.2008 -0.114205,0.31006 -3.6e-5,1.6e-4 3.6e-5,3.5e-4 0,5.1e-4 -0.02453,0.10911 -0.03553,0.22241 -0.03152,0.33435 6e-6,1.7e-4 -6e-6,3.5e-4 0,5.2e-4 0.0041,0.11193 0.02314,0.2224 0.05788,0.32659 5.3e-5,1.6e-4 -5.4e-5,3.6e-4 0,5.2e-4 l 0.742073,2.03502 c 0.04049,0.0977 0.0694,0.21183 0.08785,0.33434 2.7e-5,1.8e-4 -2.6e-5,3.4e-4 0,5.2e-4 0.01843,0.12255 0.02677,0.25362 0.02532,0.38551 -2e-6,1.7e-4 2e-6,3.4e-4 0,5.1e-4 -0.0015,0.1319 -0.01234,0.26437 -0.03152,0.39016 -2.5e-5,1.7e-4 2.5e-5,3.5e-4 0,5.2e-4 -0.0192,0.12575 -0.04691,0.2446 -0.08165,0.34881 -4.8e-5,1.5e-4 4.9e-5,3.7e-4 0,5.2e-4 l -0.9741,2.66082 v 5.2e-4 c -0.03479,0.10422 -0.087,0.21176 -0.151412,0.31677 -8.6e-5,1.4e-4 8.5e-5,3.8e-4 0,5.2e-4 -0.06445,0.10503 -0.141341,0.20735 -0.22531,0.30179 -0.08414,0.0947 -0.17513,0.18111 -0.268717,0.25373 -0.09348,0.0725 -0.189387,0.1314 -0.282153,0.17053 l -1.298629,0.59997 c -0.173976,0.0913 -0.405879,0.13038 -0.640788,0.12712 -0.117454,-0.002 -0.235777,-0.014 -0.347782,-0.0357 -0.112005,-0.0216 -0.217809,-0.0523 -0.310576,-0.0915 l -2.36523,-1.09554 c -0.09275,-0.0391 -0.188162,-0.098 -0.281636,-0.17054 -0.09358,-0.0726 -0.185098,-0.15906 -0.269235,-0.25373 -0.167996,-0.18902 -0.307146,-0.41048 -0.376721,-0.61908 l -0.742073,-2.03502 c -2.96e-4,-8.9e-4 -7.36e-4,-0.002 -0.001,-0.003 -0.03443,-0.10239 -0.08739,-0.19658 -0.152962,-0.28009 -6.19e-4,-7.9e-4 -9.3e-4,-0.002 -0.0016,-0.003 -0.06704,-0.0848 -0.14722,-0.15836 -0.235645,-0.21704 -0.08996,-0.0597 -0.188137,-0.10381 -0.288871,-0.12971 -0.09559,-0.0246 -0.193623,-0.032 -0.288872,-0.0202 -0.0017,2.1e-4 -0.0035,-2.3e-4 -0.0052,0 -0.5566,0.0652 -1.107263,0.0977 -1.655196,0.0977 -0.547934,0 -1.093139,-0.0324 -1.638143,-0.0977 -0.09857,-0.007 -0.200275,0.005 -0.299207,0.032 -0.09893,0.0273 -0.195279,0.0706 -0.283703,0.12765 -0.08843,0.0571 -0.168602,0.12809 -0.235645,0.21084 -5.33e-4,6.5e-4 -10e-4,0.001 -0.0016,0.002 -0.06569,0.0816 -0.118484,0.17449 -0.152962,0.27699 -2.52e-4,7.5e-4 -7.84e-4,0.001 -0.001,0.002 -5.1e-5,1.5e-4 5.1e-5,3.6e-4 0,5.1e-4 l -0.742074,2.0345 v 5.2e-4 c -0.03479,0.1042 -0.087,0.21177 -0.151411,0.31678 -8.6e-5,1.4e-4 8.5e-5,3.7e-4 0,5.1e-4 -0.06445,0.10503 -0.141342,0.20735 -0.22531,0.30179 -0.08414,0.0947 -0.17513,0.18111 -0.268717,0.25373 -0.09349,0.0726 -0.189387,0.1314 -0.282153,0.17054 l -2.365748,1.09554 c -0.185533,0.0913 -0.423237,0.13038 -0.660941,0.12712 -0.118852,-0.002 -0.237519,-0.014 -0.34985,-0.0357 -0.11233,-0.0216 -0.218325,-0.0523 -0.311092,-0.0915 l -1.275374,-0.59997 c -0.09277,-0.0391 -0.18862,-0.098 -0.282153,-0.17053 -0.09364,-0.0726 -0.184516,-0.15906 -0.268718,-0.25373 -0.08403,-0.0944 -0.161326,-0.19676 -0.225826,-0.30179 -8.5e-5,-1.4e-4 8.6e-5,-3.8e-4 0,-5.2e-4 -0.06446,-0.10501 -0.116624,-0.21255 -0.151412,-0.31677 v -5.2e-4 l -0.973584,-2.66082 c -5.8e-5,-1.4e-4 5.9e-5,-3.7e-4 0,-5.2e-4 -0.04059,-0.0978 -0.06937,-0.21165 -0.08785,-0.33434 -0.03699,-0.24556 -0.03228,-0.52517 0.0062,-0.77722 0.01918,-0.12577 0.04693,-0.24456 0.08165,-0.34881 v -5.2e-4 l 0.742074,-2.00815 c 6.2e-5,-1.5e-4 -6.3e-5,-3.6e-4 0,-5.1e-4 0.04052,-0.0977 0.06208,-0.20504 0.06718,-0.31574 8e-6,-1.7e-4 -7e-6,-3.5e-4 0,-5.2e-4 0.005,-0.11072 -0.0065,-0.22465 -0.03256,-0.33538 -3.7e-5,-1.6e-4 3.7e-5,-3.6e-4 0,-5.2e-4 -0.02608,-0.11073 -0.06656,-0.21801 -0.119373,-0.31574 -6.7e-5,-1.3e-4 6.8e-5,-3.9e-4 0,-5.2e-4 -0.05286,-0.0977 -0.118535,-0.18565 -0.193786,-0.25735 -0.41745,-0.37829 -0.823334,-0.78923 -1.211812,-1.22628 -8.7e-5,-1e-4 8.6e-5,-4.2e-4 0,-5.2e-4 -0.388384,-0.43696 -0.75963,-0.89979 -1.107426,-1.38234 -0.127555,-0.16963 -0.30707,-0.28716 -0.501262,-0.34261 -0.194192,-0.0554 -0.403061,-0.0488 -0.588594,0.0294 l -1.809192,0.83509 c -0.173938,0.0913 -0.405999,0.13039 -0.640788,0.12713 -0.117395,-0.002 -0.235303,-0.014 -0.347266,-0.0357 -0.111962,-0.0216 -0.217808,-0.0523 -0.310575,-0.0915 l -2.36523,-1.09606 c -0.09277,-0.0391 -0.188621,-0.098 -0.282154,-0.17053 -0.09364,-0.0726 -0.184516,-0.15906 -0.268717,-0.25373 -0.08403,-0.0944 -0.161327,-0.19676 -0.225826,-0.30179 -8.6e-5,-1.4e-4 8.5e-5,-3.8e-4 0,-5.2e-4 -0.06446,-0.10501 -0.116625,-0.21254 -0.151412,-0.31677 v -5.2e-4 l -0.533301,-1.46038 c -5.1e-5,-1.4e-4 5.1e-5,-3.7e-4 0,-5.1e-4 -0.03479,-0.0978 -0.06064,-0.21161 -0.07803,-0.33435 -0.01742,-0.1229 -0.02638,-0.25424 -0.02635,-0.38654 0,-0.13212 0.009,-0.26467 0.02635,-0.39067 0.01739,-0.126 0.04324,-0.24498 0.07803,-0.34933 v -5.2e-4 l 0.974101,-2.6603 c 4.6e-5,-1.4e-4 -4.6e-5,-3.8e-4 0,-5.2e-4 0.03479,-0.10436 0.08692,-0.21163 0.151412,-0.31678 0.0645,-0.10515 0.141249,-0.20776 0.225309,-0.3023 0.168121,-0.1891 0.365337,-0.346 0.550871,-0.42427 1.515667,-0.83296 3.052616,-1.37534 4.718974,-1.79893 0,0 -1.853118,-36.1622 2.217547,-58.005169 z" /><path
       id="rect1-8-1"
       style="fill:#f6ae2d;fill-opacity:1;stroke-width:4.60455;stroke-linecap:round;stroke-linejoin:round;paint-order:stroke fill markers"
       d="m 154.45114,89.759321 -88.621497,0.0171 -2.195292,13.140039 37.965199,-0.14632 v 73.16298 h 13.00024 v -73.16556 l 39.85135,-0.008 z" /><ellipse
       style="fill:#f6ae2d;fill-opacity:1;stroke-width:2.17235;stroke-linecap:round;stroke-linejoin:round;paint-order:stroke fill markers"
       id="path9"
       cx="72.366768"
       cy="152.09337"
       rx="7.4744797"
       ry="7.8052082" /></g></svg>
